<mxfile host="Electron" modified="2024-05-24T03:40:17.624Z" agent="Mozilla/5.0 (Macintosh; Intel Mac OS X 10_15_7) AppleWebKit/537.36 (KHTML, like Gecko) draw.io/22.1.2 Chrome/114.0.5735.289 Electron/25.9.4 Safari/537.36" etag="UGQ8zg2eg7ow6FrJxeHM" version="22.1.2" type="device">
  <diagram name="第 1 页" id="8-CrDIK9N48-z30Z7zxq">
    <mxGraphModel dx="1985" dy="1568" grid="1" gridSize="10" guides="1" tooltips="1" connect="1" arrows="1" fold="1" page="0" pageScale="1" pageWidth="827" pageHeight="1169" math="0" shadow="0">
      <root>
        <mxCell id="0" />
        <mxCell id="1" parent="0" />
        <mxCell id="ey8dVUhDonY_CloY5hZM-1" value="" style="ellipse;whiteSpace=wrap;html=1;aspect=fixed;fillColor=#e1d5e7;strokeColor=#9673a6;strokeWidth=3;" vertex="1" parent="1">
          <mxGeometry x="107.5" y="310" width="40" height="40" as="geometry" />
        </mxCell>
        <mxCell id="ey8dVUhDonY_CloY5hZM-4" value="" style="group" vertex="1" connectable="0" parent="1">
          <mxGeometry x="107.5" y="370" width="40" height="40" as="geometry" />
        </mxCell>
        <mxCell id="ey8dVUhDonY_CloY5hZM-2" value="" style="ellipse;whiteSpace=wrap;html=1;aspect=fixed;strokeWidth=3;" vertex="1" parent="ey8dVUhDonY_CloY5hZM-4">
          <mxGeometry width="40" height="40" as="geometry" />
        </mxCell>
        <mxCell id="ey8dVUhDonY_CloY5hZM-3" value="" style="ellipse;whiteSpace=wrap;html=1;aspect=fixed;strokeWidth=1;fillColor=#9773a6;strokeColor=none;" vertex="1" parent="ey8dVUhDonY_CloY5hZM-4">
          <mxGeometry x="5" y="5" width="30" height="30" as="geometry" />
        </mxCell>
        <mxCell id="ey8dVUhDonY_CloY5hZM-5" value="&lt;font style=&quot;font-size: 16px;&quot;&gt;start&lt;/font&gt;" style="text;html=1;align=center;verticalAlign=middle;resizable=0;points=[];autosize=1;strokeColor=none;fillColor=none;" vertex="1" parent="1">
          <mxGeometry x="282.5" y="315" width="50" height="30" as="geometry" />
        </mxCell>
        <mxCell id="ey8dVUhDonY_CloY5hZM-6" value="&lt;font style=&quot;font-size: 16px;&quot;&gt;end&lt;/font&gt;" style="text;html=1;align=center;verticalAlign=middle;resizable=0;points=[];autosize=1;strokeColor=none;fillColor=none;" vertex="1" parent="1">
          <mxGeometry x="282.5" y="375" width="50" height="30" as="geometry" />
        </mxCell>
        <mxCell id="ey8dVUhDonY_CloY5hZM-8" value="&lt;font style=&quot;font-size: 16px;&quot;&gt;condition block&lt;/font&gt;" style="text;html=1;align=center;verticalAlign=middle;resizable=0;points=[];autosize=1;strokeColor=none;fillColor=none;" vertex="1" parent="1">
          <mxGeometry x="242.5" y="465" width="130" height="30" as="geometry" />
        </mxCell>
        <mxCell id="ey8dVUhDonY_CloY5hZM-9" value="" style="curved=1;endArrow=classic;html=1;rounded=0;strokeWidth=3;" edge="1" parent="1">
          <mxGeometry width="50" height="50" relative="1" as="geometry">
            <mxPoint x="107.5" y="910" as="sourcePoint" />
            <mxPoint x="157.5" y="860" as="targetPoint" />
            <Array as="points">
              <mxPoint x="157.5" y="910" />
              <mxPoint x="107.5" y="860" />
            </Array>
          </mxGeometry>
        </mxCell>
        <mxCell id="ey8dVUhDonY_CloY5hZM-10" value="&lt;font style=&quot;font-size: 16px;&quot;&gt;curved arrow&lt;/font&gt;" style="text;html=1;align=center;verticalAlign=middle;resizable=0;points=[];autosize=1;strokeColor=none;fillColor=none;" vertex="1" parent="1">
          <mxGeometry x="247.5" y="866" width="120" height="30" as="geometry" />
        </mxCell>
        <mxCell id="ey8dVUhDonY_CloY5hZM-11" value="&lt;font face=&quot;Times New Roman&quot; style=&quot;font-size: 16px;&quot;&gt;&lt;b&gt;&lt;i&gt;received goal&lt;/i&gt;&lt;/b&gt;&lt;/font&gt;" style="rounded=1;whiteSpace=wrap;html=1;strokeColor=none;fillColor=#CCE5FF;gradientColor=none;gradientDirection=radial;fillStyle=auto;" vertex="1" parent="1">
          <mxGeometry x="72.5" y="1050" width="110" height="30" as="geometry" />
        </mxCell>
        <mxCell id="ey8dVUhDonY_CloY5hZM-12" value="&lt;font style=&quot;font-size: 16px;&quot;&gt;trigger&lt;/font&gt;" style="text;html=1;align=center;verticalAlign=middle;resizable=0;points=[];autosize=1;strokeColor=none;fillColor=none;" vertex="1" parent="1">
          <mxGeometry x="272.5" y="1050" width="70" height="30" as="geometry" />
        </mxCell>
        <mxCell id="ey8dVUhDonY_CloY5hZM-13" value="&lt;font face=&quot;Times New Roman&quot; style=&quot;font-size: 16px;&quot;&gt;&lt;b&gt;&lt;i&gt;finish&lt;/i&gt;&lt;/b&gt;&lt;/font&gt;" style="rounded=1;whiteSpace=wrap;html=1;strokeColor=none;fillColor=#FFE6CC;" vertex="1" parent="1">
          <mxGeometry x="87.5" y="1110" width="80" height="30" as="geometry" />
        </mxCell>
        <mxCell id="ey8dVUhDonY_CloY5hZM-14" value="&lt;span style=&quot;font-size: 16px;&quot;&gt;branch condition&lt;/span&gt;" style="text;html=1;align=center;verticalAlign=middle;resizable=0;points=[];autosize=1;strokeColor=none;fillColor=none;" vertex="1" parent="1">
          <mxGeometry x="237.5" y="1110" width="140" height="30" as="geometry" />
        </mxCell>
        <mxCell id="ey8dVUhDonY_CloY5hZM-40" value="" style="edgeStyle=orthogonalEdgeStyle;rounded=0;orthogonalLoop=1;jettySize=auto;html=1;strokeWidth=3;" edge="1" parent="1" source="ey8dVUhDonY_CloY5hZM-17" target="ey8dVUhDonY_CloY5hZM-22">
          <mxGeometry relative="1" as="geometry" />
        </mxCell>
        <mxCell id="ey8dVUhDonY_CloY5hZM-17" value="" style="ellipse;whiteSpace=wrap;html=1;aspect=fixed;fillColor=#e1d5e7;strokeColor=#9673a6;strokeWidth=3;" vertex="1" parent="1">
          <mxGeometry x="657.5" y="280" width="40" height="40" as="geometry" />
        </mxCell>
        <mxCell id="ey8dVUhDonY_CloY5hZM-20" value="&lt;font style=&quot;font-size: 16px;&quot;&gt;&lt;b style=&quot;&quot;&gt;&lt;font face=&quot;Songti SC&quot;&gt;加载 map_server&lt;/font&gt;&lt;/b&gt;&lt;/font&gt;" style="rounded=1;whiteSpace=wrap;html=1;strokeWidth=3;fillColor=#f5f5f5;strokeColor=#666666;fontColor=#333333;" vertex="1" parent="1">
          <mxGeometry x="62.5" y="750" width="135" height="60" as="geometry" />
        </mxCell>
        <mxCell id="ey8dVUhDonY_CloY5hZM-21" value="&lt;font style=&quot;font-size: 16px;&quot;&gt;general block&lt;/font&gt;" style="text;html=1;align=center;verticalAlign=middle;resizable=0;points=[];autosize=1;strokeColor=none;fillColor=none;" vertex="1" parent="1">
          <mxGeometry x="247.5" y="765" width="120" height="30" as="geometry" />
        </mxCell>
        <mxCell id="ey8dVUhDonY_CloY5hZM-27" value="" style="edgeStyle=orthogonalEdgeStyle;rounded=0;orthogonalLoop=1;jettySize=auto;html=1;strokeWidth=3;" edge="1" parent="1" source="ey8dVUhDonY_CloY5hZM-22" target="ey8dVUhDonY_CloY5hZM-26">
          <mxGeometry relative="1" as="geometry" />
        </mxCell>
        <mxCell id="ey8dVUhDonY_CloY5hZM-22" value="&lt;font style=&quot;font-size: 16px;&quot;&gt;&lt;b style=&quot;&quot;&gt;&lt;font face=&quot;Songti SC&quot;&gt;初始化&lt;/font&gt;&lt;/b&gt;&lt;/font&gt;" style="rounded=1;whiteSpace=wrap;html=1;strokeWidth=3;fillColor=#f5f5f5;strokeColor=#666666;fontColor=#333333;" vertex="1" parent="1">
          <mxGeometry x="892.5" y="270" width="135" height="60" as="geometry" />
        </mxCell>
        <mxCell id="ey8dVUhDonY_CloY5hZM-26" value="&lt;font face=&quot;Songti SC&quot;&gt;&lt;span style=&quot;font-size: 16px;&quot;&gt;&lt;b&gt;/maps 下是否有图&lt;/b&gt;&lt;/span&gt;&lt;/font&gt;" style="rhombus;whiteSpace=wrap;html=1;strokeWidth=3;fillColor=#f8cecc;strokeColor=#b85450;" vertex="1" parent="1">
          <mxGeometry x="870" y="420" width="180" height="80" as="geometry" />
        </mxCell>
        <mxCell id="ey8dVUhDonY_CloY5hZM-41" style="edgeStyle=orthogonalEdgeStyle;rounded=0;orthogonalLoop=1;jettySize=auto;html=1;entryX=0;entryY=0.5;entryDx=0;entryDy=0;strokeWidth=3;" edge="1" parent="1" source="ey8dVUhDonY_CloY5hZM-29" target="ey8dVUhDonY_CloY5hZM-33">
          <mxGeometry relative="1" as="geometry" />
        </mxCell>
        <mxCell id="ey8dVUhDonY_CloY5hZM-29" value="&lt;font style=&quot;font-size: 16px;&quot;&gt;&lt;b style=&quot;&quot;&gt;&lt;font face=&quot;Songti SC&quot;&gt;启动 map_server&lt;/font&gt;&lt;/b&gt;&lt;/font&gt;" style="rounded=1;whiteSpace=wrap;html=1;strokeWidth=3;fillColor=#f5f5f5;strokeColor=#666666;fontColor=#333333;" vertex="1" parent="1">
          <mxGeometry x="680" y="530" width="135" height="60" as="geometry" />
        </mxCell>
        <mxCell id="ey8dVUhDonY_CloY5hZM-33" value="&lt;font size=&quot;1&quot; face=&quot;黑体&quot; style=&quot;&quot;&gt;&lt;b style=&quot;font-size: 22px;&quot;&gt;Pending&lt;/b&gt;&lt;/font&gt;" style="rounded=1;whiteSpace=wrap;html=1;strokeWidth=3;fillColor=#e1d5e7;strokeColor=#9673a6;" vertex="1" parent="1">
          <mxGeometry x="1280" y="530" width="135" height="60" as="geometry" />
        </mxCell>
        <mxCell id="ey8dVUhDonY_CloY5hZM-42" value="&lt;font face=&quot;Times New Roman&quot; style=&quot;font-size: 16px;&quot;&gt;&lt;b&gt;&lt;i&gt;continue&lt;/i&gt;&lt;/b&gt;&lt;/font&gt;" style="rounded=1;whiteSpace=wrap;html=1;strokeColor=none;fillColor=#CCE5FF;gradientColor=none;gradientDirection=radial;fillStyle=auto;" vertex="1" parent="1">
          <mxGeometry x="1000" y="543" width="85" height="30" as="geometry" />
        </mxCell>
        <mxCell id="ey8dVUhDonY_CloY5hZM-45" value="&lt;font face=&quot;Times New Roman&quot;&gt;&lt;span style=&quot;font-size: 16px;&quot;&gt;&lt;b&gt;&lt;i&gt;尝试启动 map_server&lt;/i&gt;&lt;/b&gt;&lt;/span&gt;&lt;/font&gt;" style="rounded=1;whiteSpace=wrap;html=1;strokeColor=none;fillColor=#CCE5FF;gradientColor=none;gradientDirection=radial;fillStyle=auto;" vertex="1" parent="1">
          <mxGeometry x="870" y="357" width="184" height="30" as="geometry" />
        </mxCell>
        <mxCell id="ey8dVUhDonY_CloY5hZM-49" value="" style="curved=1;endArrow=classic;html=1;rounded=0;strokeWidth=3;entryX=0.5;entryY=0;entryDx=0;entryDy=0;exitX=0;exitY=0.5;exitDx=0;exitDy=0;" edge="1" parent="1" source="ey8dVUhDonY_CloY5hZM-26" target="ey8dVUhDonY_CloY5hZM-29">
          <mxGeometry width="50" height="50" relative="1" as="geometry">
            <mxPoint x="730" y="700" as="sourcePoint" />
            <mxPoint x="780" y="650" as="targetPoint" />
            <Array as="points">
              <mxPoint x="820" y="460" />
              <mxPoint x="750" y="480" />
            </Array>
          </mxGeometry>
        </mxCell>
        <mxCell id="ey8dVUhDonY_CloY5hZM-50" value="&lt;font face=&quot;Times New Roman&quot;&gt;&lt;span style=&quot;font-size: 16px;&quot;&gt;&lt;b&gt;&lt;i&gt;yes&lt;/i&gt;&lt;/b&gt;&lt;/span&gt;&lt;/font&gt;" style="rounded=1;whiteSpace=wrap;html=1;strokeColor=none;fillColor=#FFE6CC;" vertex="1" parent="1">
          <mxGeometry x="750" y="450" width="80" height="30" as="geometry" />
        </mxCell>
        <mxCell id="ey8dVUhDonY_CloY5hZM-52" value="" style="curved=1;endArrow=classic;html=1;rounded=0;strokeWidth=3;entryX=0.5;entryY=0;entryDx=0;entryDy=0;" edge="1" parent="1" target="ey8dVUhDonY_CloY5hZM-33">
          <mxGeometry width="50" height="50" relative="1" as="geometry">
            <mxPoint x="1050" y="460" as="sourcePoint" />
            <mxPoint x="1172.5" y="530" as="targetPoint" />
            <Array as="points">
              <mxPoint x="1100.5" y="460" />
              <mxPoint x="1340" y="470" />
            </Array>
          </mxGeometry>
        </mxCell>
        <mxCell id="ey8dVUhDonY_CloY5hZM-53" value="&lt;font face=&quot;Times New Roman&quot;&gt;&lt;span style=&quot;font-size: 16px;&quot;&gt;&lt;b&gt;&lt;i&gt;no&lt;/i&gt;&lt;/b&gt;&lt;/span&gt;&lt;/font&gt;" style="rounded=1;whiteSpace=wrap;html=1;strokeColor=none;fillColor=#FFE6CC;" vertex="1" parent="1">
          <mxGeometry x="1100" y="446" width="80" height="30" as="geometry" />
        </mxCell>
        <mxCell id="ey8dVUhDonY_CloY5hZM-57" value="" style="endArrow=none;html=1;rounded=0;entryX=0.25;entryY=1;entryDx=0;entryDy=0;strokeWidth=3;" edge="1" parent="1" target="ey8dVUhDonY_CloY5hZM-33">
          <mxGeometry width="50" height="50" relative="1" as="geometry">
            <mxPoint x="1168" y="640" as="sourcePoint" />
            <mxPoint x="1170" y="650" as="targetPoint" />
            <Array as="points">
              <mxPoint x="1314" y="640" />
            </Array>
          </mxGeometry>
        </mxCell>
        <mxCell id="ey8dVUhDonY_CloY5hZM-58" style="edgeStyle=orthogonalEdgeStyle;rounded=0;orthogonalLoop=1;jettySize=auto;html=1;entryX=0.5;entryY=0;entryDx=0;entryDy=0;strokeWidth=3;" edge="1" parent="1">
          <mxGeometry relative="1" as="geometry">
            <mxPoint x="1170" y="640" as="sourcePoint" />
            <mxPoint x="697.5" y="740" as="targetPoint" />
          </mxGeometry>
        </mxCell>
        <mxCell id="ey8dVUhDonY_CloY5hZM-59" style="edgeStyle=orthogonalEdgeStyle;rounded=0;orthogonalLoop=1;jettySize=auto;html=1;entryX=0.5;entryY=0;entryDx=0;entryDy=0;strokeWidth=3;" edge="1" parent="1">
          <mxGeometry relative="1" as="geometry">
            <mxPoint x="1170" y="640" as="sourcePoint" />
            <mxPoint x="875" y="740" as="targetPoint" />
          </mxGeometry>
        </mxCell>
        <mxCell id="ey8dVUhDonY_CloY5hZM-60" style="edgeStyle=orthogonalEdgeStyle;rounded=0;orthogonalLoop=1;jettySize=auto;html=1;entryX=0.5;entryY=0;entryDx=0;entryDy=0;strokeWidth=3;" edge="1" parent="1">
          <mxGeometry relative="1" as="geometry">
            <mxPoint x="1170" y="640" as="sourcePoint" />
            <mxPoint x="1057.5" y="740" as="targetPoint" />
          </mxGeometry>
        </mxCell>
        <mxCell id="ey8dVUhDonY_CloY5hZM-61" style="edgeStyle=orthogonalEdgeStyle;rounded=0;orthogonalLoop=1;jettySize=auto;html=1;entryX=0.5;entryY=0;entryDx=0;entryDy=0;strokeWidth=3;" edge="1" parent="1">
          <mxGeometry relative="1" as="geometry">
            <mxPoint x="1170" y="640" as="sourcePoint" />
            <mxPoint x="1247.5" y="740" as="targetPoint" />
          </mxGeometry>
        </mxCell>
        <mxCell id="ey8dVUhDonY_CloY5hZM-62" value="&lt;font face=&quot;Times New Roman&quot; style=&quot;font-size: 16px;&quot;&gt;&lt;b&gt;&lt;i&gt;received goal&lt;/i&gt;&lt;/b&gt;&lt;/font&gt;" style="rounded=1;whiteSpace=wrap;html=1;strokeColor=none;fillColor=#CCE5FF;gradientColor=none;gradientDirection=radial;fillStyle=auto;" vertex="1" parent="1">
          <mxGeometry x="645" y="670" width="105" height="30" as="geometry" />
        </mxCell>
        <mxCell id="ey8dVUhDonY_CloY5hZM-63" value="&lt;font face=&quot;Times New Roman&quot; style=&quot;font-size: 16px;&quot;&gt;&lt;b&gt;&lt;i&gt;received goal&lt;/i&gt;&lt;/b&gt;&lt;/font&gt;" style="rounded=1;whiteSpace=wrap;html=1;strokeColor=none;fillColor=#CCE5FF;gradientColor=none;gradientDirection=radial;fillStyle=auto;" vertex="1" parent="1">
          <mxGeometry x="822.5" y="670" width="105" height="30" as="geometry" />
        </mxCell>
        <mxCell id="ey8dVUhDonY_CloY5hZM-64" value="&lt;font face=&quot;Times New Roman&quot; style=&quot;font-size: 16px;&quot;&gt;&lt;b&gt;&lt;i&gt;received goal&lt;/i&gt;&lt;/b&gt;&lt;/font&gt;" style="rounded=1;whiteSpace=wrap;html=1;strokeColor=none;fillColor=#CCE5FF;gradientColor=none;gradientDirection=radial;fillStyle=auto;" vertex="1" parent="1">
          <mxGeometry x="1005" y="670" width="105" height="30" as="geometry" />
        </mxCell>
        <mxCell id="ey8dVUhDonY_CloY5hZM-65" value="&lt;font face=&quot;Times New Roman&quot; style=&quot;font-size: 16px;&quot;&gt;&lt;b&gt;&lt;i&gt;received goal&lt;/i&gt;&lt;/b&gt;&lt;/font&gt;" style="rounded=1;whiteSpace=wrap;html=1;strokeColor=none;fillColor=#CCE5FF;gradientColor=none;gradientDirection=radial;fillStyle=auto;" vertex="1" parent="1">
          <mxGeometry x="1195" y="670" width="105" height="30" as="geometry" />
        </mxCell>
        <mxCell id="ey8dVUhDonY_CloY5hZM-66" value="&lt;font face=&quot;Songti SC&quot;&gt;&lt;span style=&quot;font-size: 16px;&quot;&gt;&lt;b&gt;map_server 是否启动&lt;/b&gt;&lt;/span&gt;&lt;/font&gt;" style="rhombus;whiteSpace=wrap;html=1;strokeWidth=3;fillColor=#f8cecc;strokeColor=#b85450;" vertex="1" parent="1">
          <mxGeometry x="694" y="850" width="180" height="80" as="geometry" />
        </mxCell>
        <mxCell id="ey8dVUhDonY_CloY5hZM-67" value="" style="curved=1;endArrow=classic;html=1;rounded=0;strokeWidth=3;entryX=0;entryY=0;entryDx=0;entryDy=0;exitX=0.5;exitY=1;exitDx=0;exitDy=0;" edge="1" parent="1" source="ey8dVUhDonY_CloY5hZM-112" target="ey8dVUhDonY_CloY5hZM-66">
          <mxGeometry width="50" height="50" relative="1" as="geometry">
            <mxPoint x="697.5" y="800" as="sourcePoint" />
            <mxPoint x="530" y="940" as="targetPoint" />
            <Array as="points">
              <mxPoint x="690" y="840" />
            </Array>
          </mxGeometry>
        </mxCell>
        <mxCell id="ey8dVUhDonY_CloY5hZM-68" value="" style="curved=1;endArrow=classic;html=1;rounded=0;strokeWidth=3;entryX=1;entryY=0;entryDx=0;entryDy=0;exitX=0.5;exitY=1;exitDx=0;exitDy=0;" edge="1" parent="1" source="ey8dVUhDonY_CloY5hZM-113" target="ey8dVUhDonY_CloY5hZM-66">
          <mxGeometry width="50" height="50" relative="1" as="geometry">
            <mxPoint x="875" y="800" as="sourcePoint" />
            <mxPoint x="749" y="880" as="targetPoint" />
            <Array as="points">
              <mxPoint x="875" y="840" />
            </Array>
          </mxGeometry>
        </mxCell>
        <mxCell id="ey8dVUhDonY_CloY5hZM-69" value="" style="curved=1;endArrow=classic;html=1;rounded=0;strokeWidth=3;exitX=0;exitY=1;exitDx=0;exitDy=0;entryX=0.5;entryY=0;entryDx=0;entryDy=0;" edge="1" parent="1" source="ey8dVUhDonY_CloY5hZM-66" target="ey8dVUhDonY_CloY5hZM-73">
          <mxGeometry width="50" height="50" relative="1" as="geometry">
            <mxPoint x="660.9999999999995" y="930" as="sourcePoint" />
            <mxPoint x="690" y="1000" as="targetPoint" />
            <Array as="points">
              <mxPoint x="690" y="930" />
            </Array>
          </mxGeometry>
        </mxCell>
        <mxCell id="ey8dVUhDonY_CloY5hZM-70" value="&lt;font face=&quot;Times New Roman&quot;&gt;&lt;span style=&quot;font-size: 16px;&quot;&gt;&lt;b&gt;&lt;i&gt;yes&lt;/i&gt;&lt;/b&gt;&lt;/span&gt;&lt;/font&gt;" style="rounded=1;whiteSpace=wrap;html=1;strokeColor=none;fillColor=#FFE6CC;" vertex="1" parent="1">
          <mxGeometry x="657.5" y="930" width="80" height="30" as="geometry" />
        </mxCell>
        <mxCell id="ey8dVUhDonY_CloY5hZM-78" value="" style="edgeStyle=orthogonalEdgeStyle;rounded=0;orthogonalLoop=1;jettySize=auto;html=1;strokeWidth=3;" edge="1" parent="1" source="ey8dVUhDonY_CloY5hZM-73" target="ey8dVUhDonY_CloY5hZM-75">
          <mxGeometry relative="1" as="geometry" />
        </mxCell>
        <mxCell id="ey8dVUhDonY_CloY5hZM-73" value="&lt;font face=&quot;Songti SC&quot;&gt;&lt;span style=&quot;font-size: 16px;&quot;&gt;&lt;b&gt;关闭 map_server&lt;/b&gt;&lt;/span&gt;&lt;/font&gt;" style="rounded=1;whiteSpace=wrap;html=1;strokeWidth=3;fillColor=#f5f5f5;strokeColor=#666666;fontColor=#333333;" vertex="1" parent="1">
          <mxGeometry x="620" y="1000" width="135" height="60" as="geometry" />
        </mxCell>
        <mxCell id="ey8dVUhDonY_CloY5hZM-74" value="" style="curved=1;endArrow=classic;html=1;rounded=0;strokeWidth=3;exitX=1;exitY=1;exitDx=0;exitDy=0;entryX=0.5;entryY=0;entryDx=0;entryDy=0;" edge="1" parent="1" source="ey8dVUhDonY_CloY5hZM-66" target="ey8dVUhDonY_CloY5hZM-75">
          <mxGeometry width="50" height="50" relative="1" as="geometry">
            <mxPoint x="885" y="930" as="sourcePoint" />
            <mxPoint x="880" y="990" as="targetPoint" />
            <Array as="points">
              <mxPoint x="880" y="920" />
            </Array>
          </mxGeometry>
        </mxCell>
        <mxCell id="ey8dVUhDonY_CloY5hZM-90" value="" style="edgeStyle=orthogonalEdgeStyle;rounded=0;orthogonalLoop=1;jettySize=auto;html=1;strokeWidth=3;" edge="1" parent="1" source="ey8dVUhDonY_CloY5hZM-75" target="ey8dVUhDonY_CloY5hZM-86">
          <mxGeometry relative="1" as="geometry" />
        </mxCell>
        <mxCell id="ey8dVUhDonY_CloY5hZM-99" style="edgeStyle=orthogonalEdgeStyle;rounded=0;orthogonalLoop=1;jettySize=auto;html=1;strokeWidth=3;entryX=0;entryY=0.5;entryDx=0;entryDy=0;" edge="1" parent="1" source="ey8dVUhDonY_CloY5hZM-75" target="ey8dVUhDonY_CloY5hZM-95">
          <mxGeometry relative="1" as="geometry">
            <mxPoint x="1170" y="1030" as="targetPoint" />
          </mxGeometry>
        </mxCell>
        <mxCell id="ey8dVUhDonY_CloY5hZM-75" value="&lt;font face=&quot;Songti SC&quot;&gt;&lt;span style=&quot;font-size: 16px;&quot;&gt;&lt;b&gt;建图主逻辑&lt;/b&gt;&lt;/span&gt;&lt;/font&gt;" style="rounded=1;whiteSpace=wrap;html=1;strokeWidth=3;fillColor=#f5f5f5;strokeColor=#666666;fontColor=#333333;" vertex="1" parent="1">
          <mxGeometry x="815" y="1000" width="135" height="60" as="geometry" />
        </mxCell>
        <mxCell id="ey8dVUhDonY_CloY5hZM-77" value="&lt;font face=&quot;Times New Roman&quot;&gt;&lt;span style=&quot;font-size: 16px;&quot;&gt;&lt;b&gt;&lt;i&gt;no&lt;/i&gt;&lt;/b&gt;&lt;/span&gt;&lt;/font&gt;" style="rounded=1;whiteSpace=wrap;html=1;strokeColor=none;fillColor=#FFE6CC;" vertex="1" parent="1">
          <mxGeometry x="836" y="930" width="80" height="30" as="geometry" />
        </mxCell>
        <mxCell id="ey8dVUhDonY_CloY5hZM-82" value="" style="group" vertex="1" connectable="0" parent="1">
          <mxGeometry x="1430" y="1140" width="40" height="40" as="geometry" />
        </mxCell>
        <mxCell id="ey8dVUhDonY_CloY5hZM-83" value="" style="ellipse;whiteSpace=wrap;html=1;aspect=fixed;strokeWidth=3;" vertex="1" parent="ey8dVUhDonY_CloY5hZM-82">
          <mxGeometry width="40" height="40" as="geometry" />
        </mxCell>
        <mxCell id="ey8dVUhDonY_CloY5hZM-84" value="" style="ellipse;whiteSpace=wrap;html=1;aspect=fixed;strokeWidth=1;fillColor=#9773a6;strokeColor=none;" vertex="1" parent="ey8dVUhDonY_CloY5hZM-82">
          <mxGeometry x="5" y="5" width="30" height="30" as="geometry" />
        </mxCell>
        <mxCell id="ey8dVUhDonY_CloY5hZM-86" value="&lt;font face=&quot;Songti SC&quot;&gt;&lt;span style=&quot;font-size: 16px;&quot;&gt;&lt;b&gt;保存已建地图&lt;/b&gt;&lt;/span&gt;&lt;/font&gt;" style="rounded=1;whiteSpace=wrap;html=1;strokeWidth=3;fillColor=#f5f5f5;strokeColor=#666666;fontColor=#333333;" vertex="1" parent="1">
          <mxGeometry x="815" y="1130" width="135" height="60" as="geometry" />
        </mxCell>
        <mxCell id="ey8dVUhDonY_CloY5hZM-102" style="edgeStyle=orthogonalEdgeStyle;rounded=0;orthogonalLoop=1;jettySize=auto;html=1;entryX=0.5;entryY=0;entryDx=0;entryDy=0;strokeWidth=3;" edge="1" parent="1" source="ey8dVUhDonY_CloY5hZM-95" target="ey8dVUhDonY_CloY5hZM-96">
          <mxGeometry relative="1" as="geometry" />
        </mxCell>
        <mxCell id="ey8dVUhDonY_CloY5hZM-95" value="&lt;font face=&quot;Songti SC&quot;&gt;&lt;span style=&quot;font-size: 16px;&quot;&gt;&lt;b&gt;抛出 Exception&lt;/b&gt;&lt;/span&gt;&lt;/font&gt;" style="rounded=1;whiteSpace=wrap;html=1;strokeWidth=3;fillColor=#f5f5f5;strokeColor=#666666;fontColor=#333333;" vertex="1" parent="1">
          <mxGeometry x="1180" y="1000" width="135" height="60" as="geometry" />
        </mxCell>
        <mxCell id="ey8dVUhDonY_CloY5hZM-105" style="edgeStyle=orthogonalEdgeStyle;rounded=0;orthogonalLoop=1;jettySize=auto;html=1;entryX=0;entryY=0.5;entryDx=0;entryDy=0;strokeWidth=3;" edge="1" parent="1" source="ey8dVUhDonY_CloY5hZM-96" target="ey8dVUhDonY_CloY5hZM-83">
          <mxGeometry relative="1" as="geometry" />
        </mxCell>
        <mxCell id="ey8dVUhDonY_CloY5hZM-96" value="&lt;b style=&quot;&quot;&gt;&lt;font style=&quot;font-size: 22px;&quot; face=&quot;黑体&quot;&gt;Stop&lt;/font&gt;&lt;/b&gt;" style="rounded=1;whiteSpace=wrap;html=1;strokeWidth=3;fillColor=#e1d5e7;strokeColor=#9673a6;" vertex="1" parent="1">
          <mxGeometry x="1180" y="1130" width="135" height="60" as="geometry" />
        </mxCell>
        <mxCell id="ey8dVUhDonY_CloY5hZM-98" value="&lt;font face=&quot;Songti SC&quot;&gt;&lt;span style=&quot;font-size: 16px;&quot;&gt;&lt;b&gt;更新已建地图&lt;/b&gt;&lt;/span&gt;&lt;/font&gt;" style="rounded=1;whiteSpace=wrap;html=1;strokeWidth=3;fillColor=#f5f5f5;strokeColor=#666666;fontColor=#333333;" vertex="1" parent="1">
          <mxGeometry x="990" y="860" width="135" height="60" as="geometry" />
        </mxCell>
        <mxCell id="ey8dVUhDonY_CloY5hZM-100" value="" style="curved=1;endArrow=classic;html=1;rounded=0;strokeWidth=3;entryX=1;entryY=0.25;entryDx=0;entryDy=0;exitX=0;exitY=0.75;exitDx=0;exitDy=0;" edge="1" parent="1" source="ey8dVUhDonY_CloY5hZM-95" target="ey8dVUhDonY_CloY5hZM-86">
          <mxGeometry width="50" height="50" relative="1" as="geometry">
            <mxPoint x="1146" y="1080" as="sourcePoint" />
            <mxPoint x="1100" y="1150" as="targetPoint" />
            <Array as="points">
              <mxPoint x="1050" y="1070" />
            </Array>
          </mxGeometry>
        </mxCell>
        <mxCell id="ey8dVUhDonY_CloY5hZM-101" value="" style="curved=1;endArrow=classic;html=1;rounded=0;strokeWidth=3;entryX=0.25;entryY=1;entryDx=0;entryDy=0;exitX=0.999;exitY=0.658;exitDx=0;exitDy=0;dashed=1;dashPattern=1 1;exitPerimeter=0;" edge="1" parent="1" source="ey8dVUhDonY_CloY5hZM-86" target="ey8dVUhDonY_CloY5hZM-95">
          <mxGeometry width="50" height="50" relative="1" as="geometry">
            <mxPoint x="1210" y="1110" as="sourcePoint" />
            <mxPoint x="980" y="1210" as="targetPoint" />
            <Array as="points">
              <mxPoint x="1160" y="1160" />
            </Array>
          </mxGeometry>
        </mxCell>
        <mxCell id="ey8dVUhDonY_CloY5hZM-106" value="&lt;font face=&quot;Times New Roman&quot; style=&quot;font-size: 16px;&quot;&gt;&lt;b&gt;&lt;i&gt;killed&lt;/i&gt;&lt;/b&gt;&lt;/font&gt;" style="rounded=1;whiteSpace=wrap;html=1;strokeColor=none;fillColor=#CCE5FF;gradientColor=none;gradientDirection=radial;fillStyle=auto;" vertex="1" parent="1">
          <mxGeometry x="1338" y="1144" width="60" height="30" as="geometry" />
        </mxCell>
        <mxCell id="ey8dVUhDonY_CloY5hZM-108" value="&lt;font face=&quot;Times New Roman&quot; style=&quot;font-size: 16px;&quot;&gt;&lt;b&gt;&lt;i&gt;exception occured&lt;/i&gt;&lt;/b&gt;&lt;/font&gt;" style="rounded=1;whiteSpace=wrap;html=1;strokeColor=none;fillColor=#CCE5FF;gradientColor=none;gradientDirection=radial;fillStyle=auto;" vertex="1" parent="1">
          <mxGeometry x="985" y="1014" width="140" height="30" as="geometry" />
        </mxCell>
        <mxCell id="ey8dVUhDonY_CloY5hZM-109" value="" style="curved=1;endArrow=classic;html=1;rounded=0;strokeWidth=3;entryX=0;entryY=0;entryDx=0;entryDy=0;exitX=0.5;exitY=1;exitDx=0;exitDy=0;" edge="1" parent="1" source="ey8dVUhDonY_CloY5hZM-98" target="ey8dVUhDonY_CloY5hZM-95">
          <mxGeometry width="50" height="50" relative="1" as="geometry">
            <mxPoint x="1190" y="1055" as="sourcePoint" />
            <mxPoint x="960" y="1155" as="targetPoint" />
            <Array as="points">
              <mxPoint x="1080" y="990" />
            </Array>
          </mxGeometry>
        </mxCell>
        <mxCell id="ey8dVUhDonY_CloY5hZM-110" value="&lt;font face=&quot;Times New Roman&quot; style=&quot;font-size: 16px;&quot;&gt;&lt;b&gt;&lt;i&gt;exception occured&lt;/i&gt;&lt;/b&gt;&lt;/font&gt;" style="rounded=1;whiteSpace=wrap;html=1;strokeColor=none;fillColor=#CCE5FF;gradientColor=none;gradientDirection=radial;fillStyle=auto;" vertex="1" parent="1">
          <mxGeometry x="1001" y="940" width="140" height="30" as="geometry" />
        </mxCell>
        <mxCell id="ey8dVUhDonY_CloY5hZM-111" value="&lt;font face=&quot;Songti SC&quot;&gt;&lt;span style=&quot;font-size: 16px;&quot;&gt;&lt;b&gt;清空已建地图&lt;/b&gt;&lt;/span&gt;&lt;/font&gt;" style="rounded=1;whiteSpace=wrap;html=1;strokeWidth=3;fillColor=#f5f5f5;strokeColor=#666666;fontColor=#333333;" vertex="1" parent="1">
          <mxGeometry x="1180" y="830" width="135" height="60" as="geometry" />
        </mxCell>
        <mxCell id="ey8dVUhDonY_CloY5hZM-112" value="&lt;font style=&quot;font-size: 18px;&quot; face=&quot;黑体&quot;&gt;&lt;b&gt;手动建图&lt;/b&gt;&lt;/font&gt;" style="ellipse;whiteSpace=wrap;html=1;strokeWidth=3;fillColor=#fff2cc;strokeColor=#d6b656;" vertex="1" parent="1">
          <mxGeometry x="637.5" y="740" width="120" height="60" as="geometry" />
        </mxCell>
        <mxCell id="ey8dVUhDonY_CloY5hZM-113" value="&lt;font style=&quot;font-size: 18px;&quot; face=&quot;黑体&quot;&gt;&lt;b&gt;自动建图&lt;/b&gt;&lt;/font&gt;" style="ellipse;whiteSpace=wrap;html=1;strokeWidth=3;fillColor=#fff2cc;strokeColor=#d6b656;" vertex="1" parent="1">
          <mxGeometry x="815" y="740" width="120" height="60" as="geometry" />
        </mxCell>
        <mxCell id="ey8dVUhDonY_CloY5hZM-116" style="edgeStyle=orthogonalEdgeStyle;rounded=0;orthogonalLoop=1;jettySize=auto;html=1;entryX=0.5;entryY=0;entryDx=0;entryDy=0;strokeWidth=3;" edge="1" parent="1" source="ey8dVUhDonY_CloY5hZM-114" target="ey8dVUhDonY_CloY5hZM-98">
          <mxGeometry relative="1" as="geometry" />
        </mxCell>
        <mxCell id="ey8dVUhDonY_CloY5hZM-114" value="&lt;font style=&quot;font-size: 18px;&quot; face=&quot;黑体&quot;&gt;&lt;b&gt;保存地图&lt;/b&gt;&lt;/font&gt;" style="ellipse;whiteSpace=wrap;html=1;strokeWidth=3;fillColor=#fff2cc;strokeColor=#d6b656;" vertex="1" parent="1">
          <mxGeometry x="997.5" y="740" width="120" height="60" as="geometry" />
        </mxCell>
        <mxCell id="ey8dVUhDonY_CloY5hZM-117" style="edgeStyle=orthogonalEdgeStyle;rounded=0;orthogonalLoop=1;jettySize=auto;html=1;entryX=0.5;entryY=0;entryDx=0;entryDy=0;strokeWidth=3;" edge="1" parent="1" source="ey8dVUhDonY_CloY5hZM-115" target="ey8dVUhDonY_CloY5hZM-111">
          <mxGeometry relative="1" as="geometry" />
        </mxCell>
        <mxCell id="ey8dVUhDonY_CloY5hZM-115" value="&lt;font style=&quot;font-size: 18px;&quot; face=&quot;黑体&quot;&gt;&lt;b&gt;清空地图&lt;/b&gt;&lt;/font&gt;" style="ellipse;whiteSpace=wrap;html=1;strokeWidth=3;fillColor=#fff2cc;strokeColor=#d6b656;" vertex="1" parent="1">
          <mxGeometry x="1187.5" y="740" width="120" height="60" as="geometry" />
        </mxCell>
        <mxCell id="ey8dVUhDonY_CloY5hZM-124" value="" style="curved=1;endArrow=classic;html=1;rounded=0;strokeWidth=3;exitX=0.75;exitY=0;exitDx=0;exitDy=0;entryX=0.5;entryY=1;entryDx=0;entryDy=0;" edge="1" parent="1" source="ey8dVUhDonY_CloY5hZM-111" target="ey8dVUhDonY_CloY5hZM-33">
          <mxGeometry width="50" height="50" relative="1" as="geometry">
            <mxPoint x="1640" y="750" as="sourcePoint" />
            <mxPoint x="1520" y="650" as="targetPoint" />
            <Array as="points">
              <mxPoint x="1360" y="790" />
            </Array>
          </mxGeometry>
        </mxCell>
        <mxCell id="ey8dVUhDonY_CloY5hZM-125" value="" style="curved=1;endArrow=classic;html=1;rounded=0;strokeWidth=3;exitX=1;exitY=0.75;exitDx=0;exitDy=0;entryX=0.674;entryY=0.978;entryDx=0;entryDy=0;entryPerimeter=0;" edge="1" parent="1" source="ey8dVUhDonY_CloY5hZM-98" target="ey8dVUhDonY_CloY5hZM-33">
          <mxGeometry width="50" height="50" relative="1" as="geometry">
            <mxPoint x="1291" y="840" as="sourcePoint" />
            <mxPoint x="1358" y="600" as="targetPoint" />
            <Array as="points">
              <mxPoint x="1430" y="1030" />
            </Array>
          </mxGeometry>
        </mxCell>
        <mxCell id="ey8dVUhDonY_CloY5hZM-126" value="" style="curved=1;endArrow=classic;html=1;rounded=0;strokeWidth=3;exitX=1;exitY=0;exitDx=0;exitDy=0;entryX=0.869;entryY=1.002;entryDx=0;entryDy=0;entryPerimeter=0;dashed=1;dashPattern=1 2;" edge="1" parent="1" source="ey8dVUhDonY_CloY5hZM-96" target="ey8dVUhDonY_CloY5hZM-33">
          <mxGeometry width="50" height="50" relative="1" as="geometry">
            <mxPoint x="1135" y="915" as="sourcePoint" />
            <mxPoint x="1391" y="600" as="targetPoint" />
            <Array as="points">
              <mxPoint x="1450" y="930" />
            </Array>
          </mxGeometry>
        </mxCell>
        <mxCell id="ey8dVUhDonY_CloY5hZM-128" value="" style="endArrow=classic;html=1;rounded=0;exitX=0;exitY=0.5;exitDx=0;exitDy=0;entryX=0;entryY=0.5;entryDx=0;entryDy=0;strokeWidth=3;" edge="1" parent="1" source="ey8dVUhDonY_CloY5hZM-86" target="ey8dVUhDonY_CloY5hZM-29">
          <mxGeometry width="50" height="50" relative="1" as="geometry">
            <mxPoint x="490" y="1220" as="sourcePoint" />
            <mxPoint x="540" y="1170" as="targetPoint" />
            <Array as="points">
              <mxPoint x="590" y="1160" />
              <mxPoint x="590" y="560" />
            </Array>
          </mxGeometry>
        </mxCell>
        <mxCell id="ey8dVUhDonY_CloY5hZM-129" value="&lt;font face=&quot;Times New Roman&quot; style=&quot;font-size: 16px;&quot;&gt;&lt;b&gt;&lt;i&gt;continue&lt;/i&gt;&lt;/b&gt;&lt;/font&gt;" style="rounded=1;whiteSpace=wrap;html=1;strokeColor=none;fillColor=#CCE5FF;gradientColor=none;gradientDirection=radial;fillStyle=auto;" vertex="1" parent="1">
          <mxGeometry x="547" y="850" width="85" height="30" as="geometry" />
        </mxCell>
        <mxCell id="ey8dVUhDonY_CloY5hZM-130" value="&lt;font face=&quot;Times New Roman&quot; style=&quot;font-size: 16px;&quot;&gt;&lt;b&gt;&lt;i&gt;restart&lt;/i&gt;&lt;/b&gt;&lt;/font&gt;" style="rounded=1;whiteSpace=wrap;html=1;strokeColor=none;fillColor=#CCE5FF;gradientColor=none;gradientDirection=radial;fillStyle=auto;" vertex="1" parent="1">
          <mxGeometry x="1360" y="892" width="85" height="30" as="geometry" />
        </mxCell>
        <mxCell id="ey8dVUhDonY_CloY5hZM-133" value="&lt;font size=&quot;1&quot; face=&quot;黑体&quot; style=&quot;&quot;&gt;&lt;b style=&quot;font-size: 22px;&quot;&gt;Pending&lt;/b&gt;&lt;/font&gt;" style="rounded=1;whiteSpace=wrap;html=1;strokeWidth=3;fillColor=#e1d5e7;strokeColor=#9673a6;" vertex="1" parent="1">
          <mxGeometry x="60" y="560" width="135" height="60" as="geometry" />
        </mxCell>
        <mxCell id="ey8dVUhDonY_CloY5hZM-135" value="&lt;font style=&quot;font-size: 16px;&quot;&gt;major status&lt;/font&gt;" style="text;html=1;align=center;verticalAlign=middle;resizable=0;points=[];autosize=1;strokeColor=none;fillColor=none;" vertex="1" parent="1">
          <mxGeometry x="252.5" y="575" width="110" height="30" as="geometry" />
        </mxCell>
        <mxCell id="ey8dVUhDonY_CloY5hZM-136" value="&lt;font style=&quot;font-size: 18px;&quot; face=&quot;黑体&quot;&gt;&lt;b&gt;手动建图&lt;/b&gt;&lt;/font&gt;" style="ellipse;whiteSpace=wrap;html=1;strokeWidth=3;fillColor=#fff2cc;strokeColor=#d6b656;" vertex="1" parent="1">
          <mxGeometry x="67.5" y="660" width="120" height="60" as="geometry" />
        </mxCell>
        <mxCell id="ey8dVUhDonY_CloY5hZM-138" value="&lt;font style=&quot;font-size: 16px;&quot;&gt;build-in function&lt;/font&gt;" style="text;html=1;align=center;verticalAlign=middle;resizable=0;points=[];autosize=1;strokeColor=none;fillColor=none;" vertex="1" parent="1">
          <mxGeometry x="237.5" y="675" width="140" height="30" as="geometry" />
        </mxCell>
        <mxCell id="ey8dVUhDonY_CloY5hZM-139" value="" style="endArrow=classic;html=1;rounded=0;strokeWidth=3;" edge="1" parent="1">
          <mxGeometry width="50" height="50" relative="1" as="geometry">
            <mxPoint x="97.5" y="1000" as="sourcePoint" />
            <mxPoint x="147.5" y="950" as="targetPoint" />
            <Array as="points">
              <mxPoint x="147.5" y="1000" />
            </Array>
          </mxGeometry>
        </mxCell>
        <mxCell id="ey8dVUhDonY_CloY5hZM-140" value="&lt;font style=&quot;font-size: 16px;&quot;&gt;elbow arrow&lt;/font&gt;" style="text;html=1;align=center;verticalAlign=middle;resizable=0;points=[];autosize=1;strokeColor=none;fillColor=none;" vertex="1" parent="1">
          <mxGeometry x="247.5" y="970" width="110" height="30" as="geometry" />
        </mxCell>
        <mxCell id="ey8dVUhDonY_CloY5hZM-141" value="&lt;font face=&quot;Songti SC&quot;&gt;&lt;span style=&quot;font-size: 16px;&quot;&gt;&lt;b&gt;/maps 下是否有图&lt;/b&gt;&lt;/span&gt;&lt;/font&gt;" style="rhombus;whiteSpace=wrap;html=1;strokeWidth=3;fillColor=#f8cecc;strokeColor=#b85450;" vertex="1" parent="1">
          <mxGeometry x="37.5" y="440" width="180" height="80" as="geometry" />
        </mxCell>
      </root>
    </mxGraphModel>
  </diagram>
</mxfile>
